<svg width="179" height="40" viewBox="0 0 179 40" fill="none" xmlns="http://www.w3.org/2000/svg">
<g clip-path="url(#clip0_22_77)">
<path d="M62.494 35.2557C61.4397 35.2557 60.4355 35.1055 59.5346 34.6051C58.3069 33.9778 57.1258 32.6733 56.325 31.5189C55.5977 30.4646 55.0205 29.4603 54.4433 28.4828C53.8428 28.5328 52.8385 28.5061 52.3114 28.4561V31.6924C52.3114 33.2472 52.4615 34.5283 52.7885 34.902C52.8652 35.0021 52.8652 35.1289 52.6383 35.1289H48.2243C47.9974 35.1289 47.9974 35.0021 48.0741 34.902C48.4011 34.5016 48.5746 33.2705 48.5746 31.6924V22.6374C48.5746 21.056 48.3978 19.8282 48.0741 19.4278C47.9974 19.3277 47.9974 19.2009 48.2243 19.2009H55.2474C57.5795 19.2009 61.2195 19.8782 61.2195 23.4649C61.2195 25.9738 59.1877 27.1783 58.0099 27.7054C58.5371 28.5595 59.2377 29.6372 60.2186 30.9684C61.9735 33.2772 63.0545 34.3048 63.9554 34.9053C64.1322 35.0054 64.1322 35.1556 63.9787 35.1823C63.6784 35.2323 63.1513 35.2557 62.4974 35.2557H62.494ZM52.308 27.3284C52.7584 27.4051 53.4858 27.4285 54.3666 27.4051C56.0982 27.3784 57.3526 26.501 57.3526 23.6417C57.3526 20.9559 55.7478 20.3286 54.3933 20.3286H52.3114V27.3284H52.308Z" fill="currentColor"/>
<path d="M75.9664 19.2009C76.3434 19.2009 76.4669 19.2276 76.4669 19.628L76.4936 21.7366C76.4168 21.81 76.1933 21.8367 76.0665 21.7366C75.466 21.1094 73.9345 20.382 72.6033 20.382H69.5672V26.4543H72.5766C73.6042 26.4543 74.6585 25.9538 74.9588 25.9038C75.0356 25.9038 75.0856 25.9538 75.109 25.9805V28.1391C75.0823 28.1658 75.0322 28.1892 74.9588 28.1892C74.6585 28.1391 73.7544 27.662 72.5766 27.662H69.5672V33.1571C69.5672 33.861 69.5939 33.9078 70.2211 33.9078H72.5533C74.435 33.9078 76.1399 32.5799 76.7171 32.026C76.8939 31.8492 77.2176 31.8992 77.2176 32.0761L76.667 34.7118C76.567 35.1122 76.29 35.1389 76.1666 35.1389H65.4301C65.2032 35.1389 65.2032 35.0121 65.2799 34.912C65.6069 34.5116 65.7804 33.2805 65.7804 31.7024V22.6474C65.7804 21.066 65.6036 19.8115 65.2799 19.4378C65.2032 19.3377 65.2032 19.211 65.4301 19.211H75.9664V19.2009Z" fill="currentColor"/>
<path d="M79.5263 34.9053C79.8533 34.505 80.0267 33.2738 80.0267 31.6957V22.6408C80.0267 21.0593 79.8499 19.8048 79.5263 19.4312C79.4495 19.3311 79.4495 19.2043 79.6764 19.2043H87.3034C93.0487 19.2043 95.7311 22.6174 95.7311 26.7812C95.7311 31.4722 92.9953 35.1355 87.2534 35.1355H79.6764C79.4495 35.1355 79.4495 35.0088 79.5263 34.9087V34.9053ZM84.344 33.9278H86.6528C90.166 33.9278 91.5206 30.9417 91.5206 26.8279C91.5206 23.3414 90.166 20.3286 86.6528 20.3286H83.8169V33.2972C83.8169 33.7476 83.8436 33.9244 84.344 33.9244V33.9278Z" fill="currentColor"/>
<path d="M108.299 19.2009C108.676 19.2009 108.8 19.2276 108.8 19.628L108.826 21.7366C108.75 21.81 108.526 21.8367 108.399 21.7366C107.799 21.1094 106.267 20.382 104.936 20.382H101.9V26.4543H104.91C105.937 26.4543 106.991 25.9538 107.292 25.9038C107.368 25.9038 107.418 25.9538 107.442 25.9805V28.1391C107.415 28.1658 107.365 28.1892 107.292 28.1892C106.991 28.1391 106.087 27.662 104.91 27.662H101.9V33.1571C101.9 33.861 101.927 33.9078 102.554 33.9078H104.886C106.768 33.9078 108.473 32.5799 109.05 32.026C109.227 31.8492 109.55 31.8992 109.55 32.0761L109 34.7118C108.9 35.1122 108.623 35.1389 108.499 35.1389H97.763C97.5361 35.1389 97.5361 35.0121 97.6128 34.912C97.9398 34.5116 98.1133 33.2805 98.1133 31.7024V22.6474C98.1133 21.066 97.9365 19.8115 97.6128 19.4378C97.5361 19.3377 97.5361 19.211 97.763 19.211H108.299V19.2009Z" fill="currentColor"/>
<path d="M112.49 20.7557C112.29 20.5555 111.436 19.628 111.235 19.4278C111.185 19.3778 111.185 19.2276 111.312 19.2009H115.226C115.603 19.2009 115.676 19.2276 115.903 19.4779L124.708 30.1143V22.6875C124.708 20.8558 124.357 19.8015 124.131 19.4278C124.054 19.3277 124.081 19.2009 124.181 19.2009H126.713C126.79 19.2009 126.84 19.3277 126.736 19.4278C126.459 19.8549 126.159 20.8825 126.159 22.6875V35.1289C125.959 35.2023 124.478 35.2023 124.304 35.1022L113.968 22.6841V31.639C113.968 33.4707 114.295 34.525 114.518 34.902C114.595 35.0021 114.568 35.1289 114.468 35.1289H111.936C111.859 35.1289 111.809 35.0021 111.886 34.902C112.163 34.4749 112.487 33.4473 112.487 31.639V20.7524L112.49 20.7557Z" fill="currentColor"/>
<path d="M136.972 36.0297C137.673 36.2966 139.148 36.7303 139.148 37.5311C139.148 38.7155 137.987 39.3461 136.776 39.3461C135.981 39.3461 135.454 39.0958 134.854 38.5754C134.82 38.5453 134.81 38.4919 134.834 38.4552L134.997 38.1883C135.027 38.1383 135.097 38.1283 135.141 38.1683C135.608 38.5754 136.162 38.7689 136.822 38.7689C137.483 38.7689 138.057 38.5487 138.057 38.2117C138.057 37.4844 136.585 37.3776 135.604 37.1674C135.514 37.1474 135.471 37.0406 135.524 36.9639L136.599 35.3724L137.363 35.3958L136.966 36.033L136.972 36.0297Z" fill="currentColor"/>
<path d="M136.472 35.4825C132.158 35.1055 129.045 32.373 129.045 27.255C129.045 21.7099 132.832 18.8006 137.85 18.8006C140.459 18.8006 142.264 19.251 143.091 19.6547C143.518 19.8816 143.618 19.955 143.518 20.5088L143.218 22.2137C143.091 22.3405 142.818 22.3138 142.718 22.2137C141.94 21.3362 140.559 20.1818 138.227 20.1818C134.94 20.1818 133.309 22.8176 133.309 27.1816C133.309 31.5456 135.141 33.8043 138.627 33.8043C140.836 33.8043 142.264 33.1537 143.295 32.4264C143.472 32.3997 143.545 33.6542 143.395 33.8811C142.341 34.7585 140.559 35.5359 137.526 35.5359H137.149" fill="currentColor"/>
<path d="M155.239 17.6829C155.209 17.7329 155.156 17.7596 155.099 17.7563C153.771 17.6462 152.266 17.4594 150.948 17.4594C150.605 17.4594 150.238 17.9898 149.894 18.567C149.867 18.6104 149.814 18.6238 149.771 18.5971L149.534 18.4436C149.494 18.4169 149.48 18.3669 149.507 18.3268L151.142 15.5509C151.175 15.4909 151.242 15.4575 151.309 15.4642C152.55 15.5743 153.961 15.7578 155.192 15.7578C155.586 15.7578 155.953 15.3841 156.34 14.897C156.377 14.8536 156.437 14.8336 156.49 14.857L156.704 14.9437C156.76 14.9671 156.784 15.0338 156.754 15.0872L155.239 17.6862V17.6829Z" fill="currentColor"/>
<path d="M147.158 35.1322H144.399C144.249 35.1322 144.249 35.0054 144.372 34.9053C144.823 34.4282 145.5 33.3506 146.454 31.1919L151.749 19.201H154.208L158.876 31.0685C159.503 32.7 160.23 34.1547 160.781 34.8319C160.858 34.9587 160.858 35.1322 160.681 35.1322H156.24C155.99 35.1322 155.963 35.0588 155.963 34.8319C156.04 34.1814 155.563 32.75 154.885 31.0185L154.385 29.7406H148.74L148.163 31.1185C147.335 33.0503 147.208 34.5317 147.385 34.9053C147.409 35.0054 147.359 35.1322 147.158 35.1322ZM149.214 28.6329H153.955L151.696 22.7642L149.214 28.6329Z" fill="currentColor"/>
<path d="M161.104 27.1549C161.104 21.9601 164.818 18.8006 169.986 18.8006C175.154 18.8006 178.917 21.9601 178.917 27.1549C178.917 32.3497 175.204 35.5326 169.986 35.5326C164.768 35.5326 161.104 32.373 161.104 27.1549ZM174.677 27.1549C174.677 23.0411 173.322 20.0817 169.986 20.0817C166.649 20.0817 165.345 23.0411 165.345 27.1549C165.345 31.2687 166.726 34.228 169.986 34.228C173.245 34.228 174.677 31.2687 174.677 27.1549Z" fill="currentColor"/>
<path d="M48.0808 8.89817H49.1885V14.8536H48.0808V8.89817Z" fill="currentColor"/>
<path d="M55.501 11.8075H56.5487V14.1797C55.9281 14.6801 55.0606 14.937 54.2165 14.937C52.3715 14.937 51.0103 13.6525 51.0103 11.8742C51.0103 10.0959 52.3715 8.81142 54.2332 8.81142C55.2275 8.81142 56.0616 9.14172 56.6254 9.78231L55.9281 10.4629C55.461 9.99584 54.9238 9.78231 54.2866 9.78231C53.0188 9.78231 52.1246 10.6431 52.1246 11.8742C52.1246 13.1054 53.0188 13.9661 54.2766 13.9661C54.7003 13.9661 55.1207 13.8794 55.501 13.6592V11.8042V11.8075Z" fill="currentColor"/>
<path d="M62.544 14.8536L61.3263 13.1087C61.2495 13.1154 61.1728 13.1154 61.096 13.1154H59.7515V14.8503H58.6438V8.89482H61.0927C62.6575 8.89482 63.6284 9.69222 63.6284 11.0134C63.6284 11.9143 63.1679 12.5782 62.3605 12.8918L63.7318 14.8469H62.5407L62.544 14.8536ZM61.046 9.83569H59.7515V12.2079H61.046C62.0169 12.2079 62.5174 11.7641 62.5174 11.0168C62.5174 10.2694 62.0169 9.83569 61.046 9.83569Z" fill="currentColor"/>
<path d="M69.9743 13.9261V14.8536H65.5068V8.89817H69.8542V9.82568H66.6112V11.3738H69.4872V12.2846H66.6112V13.9261H69.9709H69.9743Z" fill="currentColor"/>
<path d="M70.9418 14.0796L71.5724 13.3222C71.896 13.766 72.2864 14.0028 72.7535 14.0028C73.3674 14.0028 73.681 13.6358 73.681 12.9052V9.82568H71.5624V8.89817H74.7853V12.8451C74.7853 14.2497 74.088 14.937 72.7768 14.937C72.0295 14.937 71.3489 14.6301 70.9385 14.0762L70.9418 14.0796Z" fill="currentColor"/>
<path d="M80.7107 13.4757H77.7346L77.1474 14.8536H76.0063L78.6855 8.89817H79.7731L82.4623 14.8536H81.3045L80.7073 13.4757H80.7107ZM80.347 12.6082L79.2226 10.0058L78.1083 12.6082H80.347Z" fill="currentColor"/>
<path d="M92.1445 13.2388C92.1445 14.2597 91.3438 14.8536 89.8124 14.8536H86.853V8.89817H89.6422C91.0702 8.89817 91.8376 9.50205 91.8376 10.4463C91.8376 11.0601 91.5306 11.5106 91.0736 11.7575C91.7108 11.961 92.1445 12.4648 92.1445 13.2388ZM87.9574 9.76563V11.4071H89.5221C90.2862 11.4071 90.7232 11.1335 90.7232 10.5897C90.7232 10.0459 90.2895 9.76563 89.5221 9.76563H87.9574ZM91.0302 13.1287C91.0302 12.5315 90.5798 12.2679 89.7457 12.2679H87.9607V13.9862H89.7457C90.5798 13.9862 91.0302 13.7226 91.0302 13.1287Z" fill="currentColor"/>
<path d="M97.8331 13.4757H94.857L94.2698 14.8536H93.1288L95.8079 8.89817H96.8956L99.5847 14.8536H98.427L97.8298 13.4757H97.8331ZM97.4661 12.6082L96.3417 10.0058L95.2274 12.6082H97.4661Z" fill="currentColor"/>
<path d="M101.897 9.83569H99.9216V8.9015H104.976V9.83569H103.001V14.8536H101.893V9.83569H101.897Z" fill="currentColor"/>
<path d="M106.451 8.89817H107.559V14.8536H106.451V8.89817Z" fill="currentColor"/>
<path d="M109.304 14.223L109.687 13.3656C110.164 13.7493 110.922 14.0195 111.652 14.0195C112.58 14.0195 112.97 13.6859 112.97 13.2455C112.97 11.961 109.43 12.8017 109.43 10.5897C109.43 9.62884 110.194 8.81142 111.829 8.81142C112.543 8.81142 113.294 8.99826 113.811 9.33857L113.461 10.196C112.924 9.8824 112.336 9.72893 111.819 9.72893C110.902 9.72893 110.525 10.0859 110.525 10.5363C110.525 11.8042 114.055 10.9801 114.055 13.1654C114.055 14.1163 113.281 14.9337 111.646 14.9337C110.718 14.9337 109.791 14.6434 109.297 14.2197L109.304 14.223Z" fill="currentColor"/>
<path d="M116.921 9.83569H114.945V8.9015H120V9.83569H118.025V14.8536H116.917V9.83569H116.921Z" fill="currentColor"/>
<path d="M125.041 13.4757H122.065L121.478 14.8536H120.337L123.016 8.89817H124.104L126.793 14.8536H125.635L125.038 13.4757H125.041ZM124.678 12.6082L123.553 10.0058L122.439 12.6082H124.678Z" fill="currentColor"/>
<path d="M14.4033 31.0218C13.9328 30.7849 13.4824 30.518 13.052 30.2244C12.6583 29.9541 12.2813 29.6639 11.921 29.3536C11.4639 28.9599 11.0369 28.5328 10.6432 28.0757C10.3329 27.7154 10.0426 27.3384 9.77236 26.9447C9.47876 26.5143 9.21184 26.0639 8.97496 25.5935C8.91491 25.48 8.77478 25.4367 8.66468 25.5001L7.30343 26.2841L2.24546 29.2068L1.81506 29.4537C1.16447 29.8274 0.410443 30.2644 0.216933 30.2177C0.0734677 30.1843 0.0034035 30.2711 0.0034035 30.4279V30.6114C0.0034035 30.6114 0.0034035 30.6247 0.0034035 30.6314V32.1962C0.0034035 32.1962 0.0034035 32.2029 0.0034035 32.2062C-0.0132785 32.5599 0.190241 32.6533 0.360397 32.4598C0.513871 32.2896 0.640654 32.2162 1.84843 31.5189L3.14962 30.7682L8.03076 27.9523C8.13085 27.8922 8.26097 27.9223 8.3277 28.019C8.60796 28.4261 8.91157 28.8198 9.23186 29.1968C9.3086 29.2869 9.30526 29.417 9.22185 29.5004L5.2382 33.484L1.4881 37.2341L0.744083 37.9782C0.467162 38.2417 0.303679 38.3685 0.226942 38.3719C0.0801405 38.3752 0.00673989 38.4319 0.00673989 38.5887V39.5996V39.7698C0.00673989 39.8932 0.106832 39.9933 0.230278 39.9933H1.19116H1.40802C1.56483 39.9933 1.62155 39.9233 1.62489 39.7731C1.62489 39.6964 1.75501 39.5329 2.01191 39.2593L6.5127 34.7585L10.4964 30.7749C10.5798 30.6915 10.7099 30.6881 10.8 30.7649C11.177 31.0885 11.5707 31.3888 11.9777 31.669C12.0745 31.7358 12.1045 31.8625 12.0444 31.966L9.22853 36.8471L8.97162 37.2942C8.97162 37.2942 8.96829 37.3009 8.96495 37.3042C8.90156 37.4143 8.84151 37.5177 8.78145 37.6212L7.71714 39.4628C7.62372 39.5963 7.54365 39.6931 7.47692 39.7398C7.35014 39.8299 7.43355 39.99 7.56367 39.99H9.15846C9.55883 40 9.65559 40.0033 9.68228 39.8365C9.70563 39.6764 9.76902 39.5329 10.1794 38.8123L10.7933 37.7479L13.716 32.6866L14.5 31.3254C14.5634 31.2153 14.52 31.0718 14.4066 31.0151L14.4033 31.0218Z" fill="currentColor"/>
<path d="M25.5 8.66128C25.4366 8.77138 25.48 8.91484 25.5934 8.97156C26.0605 9.20844 26.5142 9.47536 26.9446 9.76896C27.3383 10.0392 27.7153 10.3295 28.0757 10.6398C28.5328 11.0335 28.9598 11.4605 29.3535 11.9176C29.6638 12.2779 29.9541 12.6549 30.2243 13.0486C30.5179 13.479 30.7848 13.9294 31.0217 14.3999C31.0818 14.5133 31.2219 14.5567 31.332 14.4933L32.6932 13.7092L36.2732 11.6407C37.3575 11.0201 37.4342 11.0368 37.6811 11.0234C37.8279 11.0168 37.848 10.92 37.7846 10.8099L37.4109 10.1593C37.3508 10.0526 37.2908 9.94579 37.2274 9.84236L36.847 9.18175C36.7837 9.07165 36.6936 9.04162 36.6102 9.16507C36.4734 9.37526 36.4467 9.44867 35.3156 10.1059L31.9692 12.0377C31.8691 12.0978 31.739 12.0677 31.6723 11.971C31.392 11.5639 31.0884 11.1702 30.7681 10.7932C30.6914 10.7031 30.6947 10.573 30.7781 10.4896L33.6374 7.63033C34.4482 6.83293 34.5316 6.81959 34.7585 6.74619C34.8986 6.69948 34.8919 6.60272 34.8052 6.51598L34.1412 5.85203L33.4773 5.18809C33.3872 5.09801 33.2904 5.09134 33.2471 5.2348C33.167 5.48503 33.1637 5.55843 32.0893 6.63275L29.5103 9.21178C29.4269 9.29519 29.2968 9.29853 29.2067 9.22179C28.8297 8.89816 28.436 8.59789 28.029 8.31763C27.9322 8.2509 27.9022 8.12412 27.9622 8.02069L29.9274 4.61757C30.5579 3.53991 30.6313 3.51322 30.8382 3.37977C30.9616 3.29969 30.9316 3.20628 30.8215 3.14288L30.1809 2.77254C30.0642 2.70248 29.9474 2.63575 29.8273 2.56902L29.1934 2.20202C29.0833 2.13863 28.9898 2.15865 28.9798 2.30545C28.9665 2.55568 28.9798 2.63242 28.3292 3.77346L26.294 7.29669L25.51 8.65794L25.5 8.66128Z" fill="currentColor"/>
<path d="M13.7125 7.30336L11.6039 3.65001C11.0267 2.63575 11.04 2.55567 11.0267 2.31212C11.02 2.16532 10.9233 2.1453 10.8132 2.20869L10.1793 2.57569C10.0691 2.63908 9.95905 2.70248 9.85228 2.76587L9.18834 3.14955C9.07824 3.21294 9.04821 3.30303 9.17166 3.38644C9.39186 3.5299 9.46193 3.54992 10.2226 4.86446L12.0476 8.02402C12.1077 8.12411 12.0777 8.25423 11.9809 8.32096C11.5739 8.60122 11.1802 8.90483 10.8032 9.22512C10.7131 9.30186 10.583 9.29852 10.4995 9.21511L7.73701 6.45258C6.84286 5.54842 6.83619 5.47168 6.75945 5.2348C6.71274 5.09467 6.61598 5.10134 6.52924 5.18809L5.8653 5.85203L5.20135 6.51597C5.11127 6.60605 5.1046 6.70281 5.24806 6.74618C5.48495 6.82292 5.56168 6.82959 6.46585 7.72375L9.22838 10.4863C9.31179 10.5697 9.31513 10.6998 9.23839 10.7899C8.91476 11.1669 8.61448 11.5573 8.33423 11.9676C8.2675 12.0644 8.14072 12.0944 8.03729 12.0344L4.63417 10.0692C3.55651 9.44199 3.52982 9.36525 3.39637 9.15839C3.31629 9.03495 3.22287 9.06497 3.15948 9.17508L2.76912 9.84903C2.71241 9.94578 2.65569 10.0425 2.6023 10.1393L2.21862 10.8032C2.15523 10.9133 2.17525 11.0068 2.32205 11.0168C2.58562 11.0301 2.65569 11.0168 3.97023 11.7741L7.30995 13.7026L8.6712 14.4866C8.7813 14.55 8.92477 14.5066 8.98149 14.3932C9.21837 13.9261 9.48528 13.4757 9.77888 13.042C10.0458 12.6483 10.3361 12.2712 10.6497 11.9109C11.0434 11.4538 11.4704 11.0268 11.9275 10.6331C12.2879 10.3228 12.6649 10.0325 13.0586 9.76228C13.489 9.46868 13.9394 9.20177 14.4098 8.96488C14.5232 8.90483 14.5699 8.7647 14.5032 8.6546L13.7192 7.29335L13.7125 7.30336Z" fill="currentColor"/>
<path d="M39.8 18.9273C39.5664 19.0475 39.513 19.0975 37.995 19.0975H34.345C34.2282 19.0975 34.1314 19.0074 34.1214 18.8906C34.0847 18.3902 34.018 17.8997 33.9279 17.416C33.9079 17.2992 33.9746 17.1891 34.0881 17.1591L37.7881 16.1682C39.0826 15.8245 39.1527 15.8579 39.3996 15.9112C39.5431 15.9413 39.5864 15.8545 39.5531 15.7344L39.3829 15.0972C39.3362 14.9137 39.2861 14.7268 39.2361 14.5467L39.0693 13.9194C39.0359 13.7993 38.9558 13.7426 38.8457 13.8427C38.6489 14.0195 38.6122 14.0796 37.1442 14.4733C37.1442 14.4733 37.1442 14.4733 37.1409 14.4733L33.4208 15.4708L31.8994 15.8779C31.7759 15.9112 31.7059 16.0414 31.7459 16.1648C31.9061 16.6586 32.0362 17.1624 32.1329 17.6829C32.223 18.1466 32.2864 18.6204 32.3198 19.0975C32.3431 19.3944 32.3531 19.6947 32.3531 20.0017C32.3531 20.3086 32.3431 20.6056 32.3198 20.9058C32.2864 21.3863 32.223 21.86 32.1329 22.3205C32.0362 22.8409 31.9061 23.3447 31.7459 23.8385C31.7059 23.962 31.7759 24.0921 31.8994 24.1254L33.4208 24.5325L38.005 25.7603C39.3329 26.1173 39.4463 26.1573 39.7532 26.3775C39.88 26.4676 39.9868 26.3475 39.9868 26.2207V26.0072C39.9868 26.0072 39.9868 26.0005 39.9868 25.9972V24.5925C39.9868 24.5925 39.9868 24.5792 39.9835 24.5725V24.339C39.9835 24.2122 39.9201 24.1388 39.7866 24.2089C39.6431 24.2823 39.3295 24.2355 38.9158 24.1355L34.0814 22.8409C33.9679 22.8109 33.8979 22.7008 33.9212 22.584C34.0113 22.1003 34.0747 21.6098 34.1147 21.1093C34.1248 20.9926 34.2182 20.9025 34.3383 20.9025H37.9883C39.5064 20.9025 39.5597 20.9525 39.7933 21.0726C39.9267 21.1394 39.9901 21.066 39.9901 20.9425V19.0608C39.9901 18.934 39.9267 18.8606 39.7933 18.9307L39.8 18.9273Z" fill="currentColor"/>
<path d="M0 26.2207C0 26.3475 0.106765 26.4676 0.233547 26.3775C0.543832 26.1573 0.653933 26.1139 1.98182 25.7603L6.57269 24.5292L8.09409 24.1221C8.21753 24.0887 8.2876 23.9586 8.24756 23.8352C8.08741 23.3414 7.95729 22.8376 7.86054 22.3171C7.77046 21.8534 7.70707 21.3796 7.6737 20.9025C7.65035 20.6056 7.64034 20.3053 7.64034 19.9983C7.64034 19.6914 7.65035 19.3944 7.6737 19.0942C7.70707 18.6137 7.77046 18.14 7.86054 17.6795C7.95729 17.1591 8.08741 16.6553 8.24756 16.1615C8.2876 16.038 8.21753 15.9079 8.09409 15.8746L6.57269 15.4675L2.85262 14.4699C1.3846 14.0762 1.3479 14.0162 1.15106 13.8394C1.04095 13.7393 0.960881 13.796 0.927517 13.9161L0.760697 14.5433C0.710652 14.7268 0.660606 14.9103 0.613896 15.0938L0.44374 15.7311C0.410376 15.8512 0.453749 15.9413 0.597214 15.9079C0.847444 15.8545 0.917508 15.8212 2.25874 16.1782L5.91209 17.1557C6.02552 17.1858 6.09559 17.2959 6.07223 17.4126C5.98215 17.8964 5.91876 18.3869 5.87872 18.8873C5.86871 19.0041 5.77529 19.0942 5.65518 19.0942H2.00184C0.483777 19.0942 0.430395 19.0441 0.196847 18.924C0.0633914 18.8573 0 18.9307 0 19.0541V20.9359C0 21.0626 0.0633914 21.136 0.196847 21.066C0.430395 20.9459 0.483777 20.8958 2.00184 20.8958H5.65518C5.77196 20.8958 5.86871 20.9859 5.87872 21.1027C5.91542 21.6031 5.98215 22.0936 6.07223 22.5774C6.09225 22.6941 6.02552 22.8042 5.91209 22.8343L1.08433 24.1288C0.667278 24.2322 0.350321 24.2789 0.206856 24.2055C0.0734006 24.1388 0.0100092 24.2122 0.0100092 24.3356V24.5759C0.0100092 24.5759 0.0100092 24.5859 0.0100092 24.5925V25.9972C0.0100092 25.9972 0.0100092 26.0005 0.0100092 26.0038V26.2207H0Z" fill="currentColor"/>
<path d="M39.9934 30.4312C39.9934 30.2744 39.9233 30.1877 39.7798 30.221C39.6297 30.2577 39.1326 29.9942 38.6088 29.7006L37.7546 29.2068L32.6967 26.2841L31.3354 25.5001C31.2253 25.4367 31.0819 25.48 31.0251 25.5935C30.7883 26.0606 30.5213 26.511 30.2277 26.9447C29.9608 27.3384 29.6706 27.7154 29.3569 28.0757C28.9632 28.5328 28.5362 28.9599 28.0791 29.3536C27.7188 29.6639 27.3418 29.9541 26.9481 30.2244C26.5177 30.518 26.0673 30.7849 25.5968 31.0218C25.4834 31.0818 25.4367 31.222 25.5034 31.3321L26.2875 32.6933L29.2101 37.7513L29.6339 38.4853C30.2144 39.4995 30.2945 39.6597 30.3212 39.8432C30.3445 40.01 30.4413 40.0067 30.845 39.9967H32.4398C32.5699 39.9967 32.6533 39.8365 32.5265 39.7464C32.4631 39.6997 32.3864 39.613 32.2996 39.4862L30.7782 36.8505L27.9623 31.9693C27.9023 31.8692 27.9323 31.7391 28.0291 31.6724C28.4361 31.3921 28.8298 31.0885 29.2068 30.7682C29.2969 30.6915 29.427 30.6948 29.5104 30.7782L37.2308 38.4986C37.2308 38.4986 37.2375 38.5086 37.2442 38.512C37.2775 38.542 37.3042 38.572 37.3343 38.6021L37.9582 39.226C38.2417 39.5229 38.3785 39.6964 38.3819 39.7765C38.3852 39.9233 38.4419 39.9967 38.5987 39.9967H38.8189H39.7765C39.8999 39.9967 40 39.8966 40 39.7731V38.8123V38.5954C40 38.4386 39.93 38.3819 39.7798 38.3785C39.7064 38.3785 39.553 38.2584 39.2961 38.0182L30.7816 29.5037C30.6982 29.4203 30.6948 29.2902 30.7716 29.2001C31.0952 28.8231 31.3955 28.4327 31.6757 28.0224C31.7425 27.9256 31.8692 27.8956 31.9727 27.9556L36.8505 30.7716L38.1383 31.5156C38.1383 31.5156 38.145 31.5222 38.1517 31.5222C39.3594 32.2195 39.4862 32.2929 39.6397 32.4631C39.8099 32.6533 40.01 32.5632 39.9967 32.2129C39.9967 32.2062 39.9967 32.2029 39.9967 32.1962V30.6314C39.9967 30.6314 39.9967 30.6147 39.9934 30.6047V30.4312Z" fill="currentColor"/>
<path d="M26.1607 1.14772C26.2608 1.03762 26.2041 0.957544 26.084 0.924181L25.4734 0.760697C25.2832 0.707315 25.0931 0.657269 24.8996 0.607223L24.2656 0.437067C24.1455 0.403703 24.0554 0.447076 24.0888 0.590541C24.1422 0.840771 24.1756 0.910835 23.8186 2.25206L22.841 5.90541C22.811 6.01885 22.7009 6.08891 22.5841 6.06556C22.1003 5.97548 21.6099 5.91209 21.1094 5.87539C20.9926 5.86538 20.9026 5.77196 20.9026 5.65185V1.63483C20.9092 0.477104 20.9626 0.410376 21.0694 0.196847C21.1361 0.0633914 21.0627 0 20.9393 0H19.0575C18.9307 0 18.8573 0.0633914 18.9274 0.196847C19.0475 0.430395 19.0976 0.483777 19.0976 2.00184V5.65518C19.0976 5.77196 19.0075 5.86871 18.8907 5.87872C18.3903 5.91542 17.8998 5.98215 17.4194 6.07223C17.3026 6.09225 17.1925 6.02552 17.1625 5.91209L16.1148 1.99516C15.8312 0.907499 15.8646 0.827425 15.9147 0.597214C15.9447 0.453749 15.8579 0.410376 15.7378 0.44374L15.0872 0.617233C14.9104 0.663942 14.7302 0.710651 14.5534 0.760697L13.9195 0.930853C13.7994 0.964217 13.7427 1.04429 13.8428 1.15439C14.0196 1.35124 14.0796 1.38794 14.4733 2.85595L15.4709 6.57603L15.878 8.09409C15.9113 8.21753 16.0414 8.2876 16.1649 8.24756C16.6587 8.08741 17.1658 7.95396 17.6863 7.8572C18.15 7.77046 18.6205 7.70707 19.1009 7.6737C19.3978 7.65035 19.6981 7.64034 20.0051 7.64034C20.312 7.64034 20.609 7.65035 20.9092 7.6737C21.3897 7.70707 21.8601 7.77046 22.3239 7.86054C22.8443 7.95729 23.3515 8.08741 23.8453 8.2509C23.9687 8.29093 24.0988 8.22087 24.1322 8.09742L24.5392 6.57936L25.6169 2.55234C25.9372 1.38127 26.0039 1.33456 26.1674 1.15439L26.1607 1.14772Z" fill="currentColor"/>
<path d="M27.215 17.0323C27.215 17.0323 26.7446 19.0942 24.636 19.0942H22.4406L20.9026 17.5594V15.3641C20.9026 13.2688 22.9645 12.7851 22.9645 12.7851V12.3647H17.0357V12.7851C17.0357 12.7851 19.0976 13.2555 19.0976 15.3641V17.5594L17.5595 19.0975H15.3642C13.2556 19.0975 12.7851 17.0356 12.7851 17.0356H12.3647V22.9644H12.7851C12.7851 22.9644 13.2689 20.9025 15.3642 20.9025H17.5595L19.0942 22.4406L18.9107 37.0039C18.9107 39.0992 16.8489 39.583 16.8489 39.583V40.0033H22.7776V39.583C22.7776 39.583 20.7257 39.1125 20.7157 37.0139L20.8992 22.4406L22.4373 20.9058H24.6327C26.7279 20.9058 27.2117 22.9677 27.2117 22.9677H27.6321V17.039H27.2117L27.215 17.0323Z" fill="currentColor"/>
</g>
<defs>
<clipPath id="clip0_22_77">

</clipPath>
</defs>
</svg>
